<svg width="173" height="136" viewBox="0 0 173 136" fill="none" xmlns="http://www.w3.org/2000/svg">
<path d="M34 38.5H65.5M34 38.5L11 72M34 38.5L11 4M139.5 38.5H110.5M139.5 38.5L163 4M139.5 38.5L163 72M110.5 38.5V4M110.5 38.5H65.5M110.5 38.5V72M65.5 38.5V4M65.5 38.5V72" stroke="white" stroke-width="4.4" stroke-miterlimit="3.86874" stroke-linecap="square"/>
<path d="M9.41016 126H2.83594V94.332H9.41016V126ZM42.3079 94.332H51.8255V126H45.6595V104.58C45.6595 103.964 45.6666 103.105 45.6809 102.002C45.6953 100.885 45.7024 100.025 45.7024 99.4238L39.7083 126H33.2845L27.3333 99.4238C27.3333 100.025 27.3404 100.885 27.3548 102.002C27.3691 103.105 27.3762 103.964 27.3762 104.58V126H21.2102V94.332H30.8352L36.593 119.232L42.3079 94.332ZM87.108 99.9395H70.3502V106.664H85.733V112.164H70.3502V120.307H87.8814V126H63.8834V94.332H87.108V99.9395ZM103.076 94.332L107.265 112.465L108.168 117.514L109.092 112.572L112.658 94.332H119.64L123.4 112.465L124.367 117.514L125.334 112.658L129.566 94.332H136.291L127.375 126H121.058L117.234 107.48L116.117 101.357L115 107.48L111.176 126H105.031L96.0506 94.332H103.076ZM169.446 99.9395H152.689V106.664H168.071V112.164H152.689V120.307H170.22V126H146.222V94.332H169.446V99.9395Z" fill="white"/>
</svg>
