<svg viewBox="0 0 570 181" fill="none" xmlns="http://www.w3.org/2000/svg">
<!-- <svg width="570" height="181" viewBox="0 0 570 181" fill="none" xmlns="http://www.w3.org/2000/svg"> -->
<path d="M261.739 139.423C261.739 134.579 263.038 130.846 265.636 128.223C267.895 125.939 270.768 124.797 274.257 124.797C278.925 124.797 282.339 126.328 284.497 129.39C285.69 131.109 286.33 132.835 286.417 134.566H280.62C280.243 133.236 279.76 132.232 279.17 131.555C278.116 130.35 276.554 129.748 274.483 129.748C272.375 129.748 270.712 130.601 269.495 132.308C268.277 134.002 267.669 136.405 267.669 139.517C267.669 142.629 268.309 144.963 269.589 146.52C270.881 148.063 272.519 148.835 274.502 148.835C276.535 148.835 278.085 148.17 279.151 146.84C279.741 146.124 280.231 145.051 280.62 143.621H286.361C285.859 146.645 284.573 149.105 282.502 151C280.444 152.895 277.802 153.842 274.577 153.842C270.586 153.842 267.449 152.562 265.165 150.002C262.881 147.429 261.739 143.903 261.739 139.423Z" fill="white"/>
<path d="M322.352 148.929C324.649 148.929 326.468 148.082 327.811 146.388C329.167 144.694 329.844 142.284 329.844 139.159C329.844 136.047 329.167 133.644 327.811 131.95C326.468 130.243 324.649 129.39 322.352 129.39C320.056 129.39 318.224 130.237 316.856 131.931C315.488 133.625 314.804 136.035 314.804 139.159C314.804 142.284 315.488 144.694 316.856 146.388C318.224 148.082 320.056 148.929 322.352 148.929ZM335.642 139.159C335.642 144.142 334.243 147.956 331.444 150.604C329.348 152.763 326.318 153.842 322.352 153.842C318.387 153.842 315.356 152.763 313.26 150.604C310.449 147.956 309.044 144.142 309.044 139.159C309.044 134.077 310.449 130.262 313.26 127.715C315.356 125.556 318.387 124.477 322.352 124.477C326.318 124.477 329.348 125.556 331.444 127.715C334.243 130.262 335.642 134.077 335.642 139.159Z" fill="white"/>
<path d="M377.751 125.324H386.09V153.07H380.688V134.303C380.688 133.763 380.694 133.01 380.706 132.044C380.719 131.065 380.725 130.312 380.725 129.785L375.473 153.07H369.845L364.631 129.785C364.631 130.312 364.637 131.065 364.65 132.044C364.662 133.01 364.668 133.763 364.668 134.303V153.07H359.266V125.324H367.699L372.744 147.141L377.751 125.324Z" fill="white"/>
<path d="M426.373 134.152C426.373 132.709 425.99 131.68 425.225 131.065C424.472 130.45 423.412 130.143 422.044 130.143H416.641V138.312H422.044C423.412 138.312 424.472 137.98 425.225 137.315C425.99 136.65 426.373 135.595 426.373 134.152ZM432.114 134.115C432.114 137.39 431.286 139.705 429.63 141.061C427.973 142.416 425.608 143.094 422.533 143.094H416.641V153.07H410.881V125.324H422.966C425.752 125.324 427.973 126.039 429.63 127.47C431.286 128.9 432.114 131.115 432.114 134.115Z" fill="white"/>
<path d="M460.463 142.585H467.503L464.04 131.668L460.463 142.585ZM460.821 125.324H467.372L477.198 153.07H470.911L469.122 147.367H458.901L456.981 153.07H450.92L460.821 125.324Z" fill="white"/>
<path d="M499.918 125.324H505.998L517.048 144.694V125.324H522.45V153.07H516.653L505.321 133.362V153.07H499.918V125.324Z" fill="white"/>
<path d="M562.978 125.324H569.548L560.268 142.642V153.07H554.47V142.642L544.87 125.324H551.703L557.463 137.409L562.978 125.324Z" fill="white"/>
<path d="M282.084 37.0087V78.6094H294.366C300.65 78.6094 305.032 75.5102 307.512 69.3119C308.867 65.9101 309.544 61.8596 309.544 57.1604C309.544 50.6738 308.521 45.7007 306.474 42.2412C304.456 38.7529 300.42 37.0087 294.366 37.0087H282.084ZM296.614 25.9382C300.564 25.9959 303.85 26.4572 306.474 27.322C310.942 28.7923 314.56 31.4879 317.328 35.4087C319.548 38.5799 321.061 42.0106 321.869 45.7007C322.676 49.3909 323.08 52.9081 323.08 56.2523C323.08 64.7281 321.379 71.9066 317.977 77.7877C313.364 85.7158 306.243 89.6798 296.614 89.6798H269.154V25.9382H296.614Z" fill="white"/>
<path d="M404.927 37.0087V54.1333H420.019C423.017 54.1333 425.266 53.7873 426.765 53.0954C429.417 51.8846 430.743 49.4918 430.743 45.9169C430.743 42.0538 429.46 39.4592 426.894 38.133C425.453 37.3835 423.291 37.0087 420.408 37.0087H404.927ZM423.175 25.9382C427.644 26.0247 431.075 26.5725 433.468 27.5815C435.889 28.5905 437.936 30.0752 439.608 32.0356C440.992 33.6501 442.088 35.4375 442.895 37.3979C443.702 39.3583 444.106 41.5925 444.106 44.1007C444.106 47.1278 443.342 50.1116 441.814 53.0522C440.286 55.964 437.763 58.0253 434.246 59.2361C437.187 60.4181 439.262 62.1046 440.473 64.2956C441.713 66.4578 442.333 69.7732 442.333 74.2417V78.5229C442.333 81.4346 442.448 83.4095 442.679 84.4473C443.024 86.0906 443.832 87.3014 445.1 88.0798V89.6798H430.44C430.037 88.2672 429.749 87.1284 429.576 86.2636C429.23 84.4762 429.042 82.6455 429.013 80.7716L428.927 74.8472C428.869 70.7822 428.12 68.0723 426.678 66.7173C425.266 65.3623 422.599 64.6848 418.678 64.6848H404.927V89.6798H391.91V25.9382H423.175Z" fill="white"/>
<path d="M561.196 37.2249H527.466V50.7603H558.429V61.8307H527.466V78.2202H562.753V89.6798H514.45V25.9382H561.196V37.2249Z" fill="white"/>
<circle cx="353.948" cy="58.4066" r="6.49361" fill="white"/>
<circle cx="478.625" cy="58.4066" r="6.49361" fill="white"/>
<path fill-rule="evenodd" clip-rule="evenodd" d="M106.136 138.203L0 167.63L106.136 180.582V180.582L106.136 180.582L208.122 152.414L106.136 138.203V138.203L106.136 138.203Z" fill="#0EB3ED"/>
<path d="M106.136 79.4765L157.318 13.2042L208.122 51.0561V152.414L106.136 180.582V79.4765Z" fill="#A193C7"/>
<path d="M0.251508 66.0206L106.136 79.4763V180.582L0 167.63L0.251508 66.0206Z" fill="#2C2C7B"/>
<path d="M106.136 180.582V138.203L208.122 152.414L106.136 180.582Z" fill="#8C80AE"/>
<path d="M0 167.63L106.136 138.203V180.582L0 167.63Z" fill="#22226C"/>
<path d="M52.9428 0L157.318 13.2041L106.137 79.4764L0.251953 66.0207L52.9428 0Z" fill="#525193"/>
</svg>
